<svg width="16" height="8" viewBox="0 0 16 8" fill="none" xmlns="http://www.w3.org/2000/svg">
<path d="M3.95597 7.9998C4.66611 7.9998 5.21844 7.80254 5.50446 7.26008H5.7609V7.90117H7.3883V3.99542H3.84748V5.27761H5.7609C5.7609 6.17515 5.02118 6.61898 4.20255 6.61898C3.02885 6.61898 2.4272 5.71159 2.4272 4.43926C2.4272 3.04857 3.13734 2.18063 4.23213 2.18063C5.08035 2.18063 5.75104 2.70337 5.85953 3.43323L7.39816 3.13734C7.18118 1.74665 5.92857 0.799805 4.20255 0.799805C2.06227 0.799805 0.799805 2.24967 0.799805 4.42939C0.799805 6.59926 2.05241 7.9998 3.95597 7.9998Z" fill="white"/>
<path d="M8.38007 4.38994C8.38007 6.53022 9.81021 7.9998 11.9702 7.9998C14.1203 7.9998 15.5505 6.53022 15.5505 4.38994C15.5505 2.25953 14.1203 0.799805 11.9603 0.799805C9.81021 0.799805 8.38007 2.25953 8.38007 4.38994ZM10.0075 4.38994C10.0075 3.10775 10.7669 2.18063 11.9603 2.18063C13.1538 2.18063 13.9231 3.10775 13.9231 4.3998C13.9231 5.682 13.1636 6.61898 11.9702 6.61898C10.7768 6.61898 10.0075 5.682 10.0075 4.38994Z" fill="white"/>
</svg>
