<svg width="15" height="10" viewBox="0 0 15 10" fill="none" xmlns="http://www.w3.org/2000/svg">
<path d="M13.9286 0H1.07143C0.787268 0 0.514746 0.105357 0.313814 0.292893C0.112882 0.48043 0 0.734784 0 1V9C0 9.26522 0.112882 9.51957 0.313814 9.70711C0.514746 9.89464 0.787268 10 1.07143 10H13.9286C14.2127 10 14.4853 9.89464 14.6862 9.70711C14.8871 9.51957 15 9.26522 15 9V1C15 0.734784 14.8871 0.48043 14.6862 0.292893C14.4853 0.105357 14.2127 0 13.9286 0ZM12.75 1L7.5 4.39L2.25 1H12.75ZM1.07143 9V1.455L7.19464 5.41C7.28432 5.46806 7.39086 5.49918 7.5 5.49918C7.60914 5.49918 7.71568 5.46806 7.80536 5.41L13.9286 1.455V9H1.07143Z" fill="white"/>
</svg>
