<svg width="443" height="160" viewBox="0 0 443 160" fill="none" xmlns="http://www.w3.org/2000/svg">
<path d="M92.6453 157.808H113.355L57.1739 81.7534V78.0274L109.39 2.19178H88.6795L42.1921 71.0137H18.8383V2.19178H0.551758V157.808H18.8383V88.3288H43.0734L92.6453 157.808Z" fill="#0F0D12"/>
<path d="M140.556 157.808V2.19178H122.27V157.808H140.556Z" fill="#0F0D12"/>
<path d="M268.995 2.19178V123.178H265.25L187.037 2.19178H165.886V157.808H184.172V36.3836H187.918L266.131 157.808H287.282V2.19178H268.995Z" fill="#0F0D12"/>
<path d="M373.811 160C398.266 160 411.926 149.041 420.959 133.479H424.704V157.808H442.991V74.7397H369.845V90.9589H424.704C424.704 112.219 410.604 143.342 375.133 143.342C342.305 143.342 320.934 117.699 320.934 80C320.934 41.863 342.746 16.6575 375.133 16.6575C403.113 16.6575 420.298 35.0685 425.365 52.1644L442.11 47.3425C436.161 23.0137 412.367 0 375.133 0C331.289 0 302.648 32 302.648 80C302.648 128 331.069 160 373.811 160Z" fill="#0F0D12"/>
</svg>
