<svg width="605" height="161" viewBox="0 0 605 161" fill="none" xmlns="http://www.w3.org/2000/svg">
<path d="M18.8229 141.067V2.19047H0.535645V157.714H89.7684V141.067H18.8229Z" fill="#925CC8"/>
<path d="M197.466 157.714H217.295L161.112 2.19047H140.841L83.1155 157.714H102.945L116.165 119.381H184.466L197.466 157.714ZM121.893 102.514L148.553 25.4095H152.298L178.518 102.514H121.893Z" fill="#925CC8"/>
<path d="M212.98 79.2952C212.98 126.829 244.266 159.905 289.654 159.905C334.821 159.905 365.887 126.829 365.887 79.5143C365.887 31.981 334.601 0 289.434 0C244.046 0 212.98 31.981 212.98 79.2952ZM231.267 79.2952C231.267 42.2762 254.842 16.6476 289.434 16.6476C323.805 16.6476 347.6 42.2762 347.6 79.5143C347.6 116.752 324.025 143.257 289.654 143.257C255.062 143.257 231.267 116.752 231.267 79.2952Z" fill="#925CC8"/>
<path d="M399.697 141.067V2.19047H381.41V157.714H470.643V141.067H399.697Z" fill="#925CC8"/>
<path d="M586.492 2.19047V95.2857C586.492 124.638 568.646 144.133 542.206 144.133C515.326 144.133 497.7 124.638 497.7 95.2857V2.19047H479.413V96.381C479.413 134.933 504.53 161 542.206 161C579.883 161 605 134.933 605 96.381V2.19047H586.492Z" fill="#925CC8"/>
</svg>
