<svg width="101" height="20" viewBox="0 0 101 20" fill="none" xmlns="http://www.w3.org/2000/svg">
<path d="M0 8.039C0 12.8277 2.53074 16.078 6.33767 16.078C10.1446 16.078 12.6753 12.8277 12.6753 8.039C12.6753 3.20693 10.123 0 6.31604 0C2.53074 0 0 3.20693 0 8.039ZM1.79531 8.039C1.79531 4.20368 3.52573 1.6468 6.31604 1.6468C9.10634 1.6468 10.88 4.20368 10.88 8.039C10.88 11.8093 9.12797 14.4095 6.33767 14.4095C3.52573 14.4095 1.79531 11.8093 1.79531 8.039Z" fill="#0F0D12"/>
<path d="M21.25 10.3142H40.5226V8.68906H21.25V10.3142Z" fill="#0F0D12"/>
<path d="M60.4032 15.7313L56.8342 9.5558C59.0405 8.99242 60.3599 7.38895 60.3599 5.09209C60.3599 2.21018 58.2834 0.346695 55.0173 0.346695H49.7827V15.7313H51.578V9.77248H55.0605L58.4781 15.7313H60.4032ZM51.578 1.9935H55.0389C57.2235 1.9935 58.5863 3.20693 58.5863 5.04875C58.5863 6.91224 57.2235 8.12568 55.0389 8.12568H51.578V1.9935Z" fill="#0F0D12"/>
<path d="M67.9626 15.948C71.099 15.948 73.1972 13.4995 73.1972 10.4225C73.1972 7.38895 71.099 5.02709 67.941 5.02709C64.783 5.02709 62.6849 7.38895 62.6849 10.4225C62.6849 13.4995 64.783 15.948 67.9626 15.948ZM67.9626 14.3229C65.8212 14.3229 64.4153 12.5244 64.4153 10.4225C64.4153 8.36403 65.8212 6.65222 67.941 6.65222C70.0608 6.65222 71.4667 8.36403 71.4667 10.4225C71.4667 12.5244 70.0608 14.3229 67.9626 14.3229Z" fill="#0F0D12"/>
<path d="M83.107 5.24377L80.0139 13.3261H79.6462L76.4449 5.24377H74.5198L78.9324 15.7313L78.3484 17.2048C78.0023 18.0065 77.6562 18.4615 77.0506 18.4615C76.6612 18.4615 76.3584 18.3965 75.9474 18.2449L75.7744 19.7183C76.2935 19.9133 76.8126 20 77.2669 20C78.5647 20 79.4299 19.2849 80.2951 17.1181L85.0754 5.24377H83.107Z" fill="#0F0D12"/>
<path d="M91.2902 5.02709C89.2137 5.02709 87.6131 6.17551 87.1804 7.95233L88.7811 8.49404C89.0839 7.38895 90.0573 6.63055 91.2253 6.63055C92.8043 6.63055 93.8642 7.60563 93.8642 9.03575V9.5558L90.598 9.77248C88.2403 9.92416 86.8127 10.9642 86.8127 12.8494C86.8127 14.7129 88.2187 15.948 90.3601 15.948C91.6363 15.948 92.8692 15.5146 93.4965 14.5829H93.8642V15.7313H95.5946V9.01409C95.5946 6.65222 93.8642 5.02709 91.2902 5.02709ZM90.6629 14.4095C89.4084 14.4095 88.4999 13.7595 88.4999 12.6977C88.4999 11.636 89.3867 11.1376 90.598 11.0726L93.8642 10.8559V11.4626C93.8642 13.3261 92.5015 14.4095 90.6629 14.4095Z" fill="#0F0D12"/>
<path d="M99.2696 15.7313H101V0.346695H99.2696V15.7313Z" fill="#0F0D12"/>
</svg>
